<?xml version="1.0" encoding="UTF-8"?>
<!DOCTYPE svg PUBLIC "-//W3C//DTD SVG 1.1//EN" "http://www.w3.org/Graphics/SVG/1.1/DTD/svg11.dtd">
<!-- Creator: CorelDRAW 2020 (64-Bit) -->
<svg xmlns="http://www.w3.org/2000/svg" xml:space="preserve" width="48px" height="48px" version="1.1" style="shape-rendering:geometricPrecision; text-rendering:geometricPrecision; image-rendering:optimizeQuality; fill-rule:evenodd; clip-rule:evenodd"
viewBox="0 0 48 48"
 xmlns:xlink="http://www.w3.org/1999/xlink"
 xmlns:xodm="http://www.corel.com/coreldraw/odm/2003">
 <defs>
  <style type="text/css">
   <![CDATA[
    .str0 {stroke:#B97C04;stroke-width:0.9;stroke-miterlimit:22.9256}
    .fil2 {fill:#FEFEFE;fill-rule:nonzero}
    .fil0 {fill:#B97C04;fill-rule:nonzero}
    .fil1 {fill:#B97C04;fill-rule:nonzero}
   ]]>
  </style>
 </defs>
 <g id="Слой_x0020_1">
  <metadata id="CorelCorpID_0Corel-Layer"/>
  <g id="_2741582911840">
   <path class="fil0" d="M43.29 33.02l-1.05 0.13c-1.77,0.23 -3.1,1.7 -3.1,3.44 0,0.22 0.02,0.43 0.06,0.63l0.23 1c0.04,0.2 0.06,0.42 0.06,0.63 0,1.92 -1.59,3.47 -3.56,3.47 -0.59,0 -1.18,-0.15 -1.7,-0.42l-1.11 -0.59c-0.52,-0.27 -1.11,-0.42 -1.71,-0.42 -1.3,0 -2.5,0.69 -3.12,1.81l-1.2 2.01c-0.63,1.11 -1.82,1.8 -3.12,1.8 -1.3,0 -2.5,-0.69 -3.12,-1.8l-1.11 -2.01c-0.62,-1.12 -1.82,-1.81 -3.12,-1.81 -0.6,0 -1.19,0.15 -1.71,0.42l-1.11 0.59c-0.53,0.29 -1.12,0.44 -1.73,0.44 -1.97,0 -3.56,-1.56 -3.56,-3.47 0,-0.22 0.02,-0.44 0.06,-0.65l0.19 -1.02c0.04,-0.2 0.06,-0.42 0.06,-0.63 0,-1.74 -1.32,-3.21 -3.1,-3.44l-1.01 -0.11c-1.79,-0.22 -3.14,-1.7 -3.14,-3.45 0,-0.97 0.42,-1.9 1.15,-2.56l0.77 -0.7c0.71,-0.66 1.11,-1.57 1.11,-2.52 0,-0.96 -0.4,-1.87 -1.11,-2.53l-0.77 -0.7c-0.73,-0.66 -1.15,-1.59 -1.15,-2.56 0,-1.75 1.34,-3.23 3.13,-3.44l1.05 -0.13c1.78,-0.23 3.1,-1.7 3.1,-3.45 0,-0.21 -0.02,-0.42 -0.06,-0.63l-0.22 -0.96c-0.04,-0.22 -0.06,-0.44 -0.06,-0.66 0,-1.91 1.59,-3.46 3.56,-3.46 0.61,0 1.2,0.15 1.73,0.43l1.23 0.65c0.52,0.28 1.1,0.42 1.7,0.42 1.25,0 2.42,-0.64 3.06,-1.69l1.12 -1.89c0.64,-1.05 1.81,-1.69 3.06,-1.69 1.26,0 2.42,0.64 3.06,1.69l1.15 1.89c0.64,1.05 1.81,1.69 3.06,1.69 0.6,0 1.18,-0.14 1.7,-0.42l1.23 -0.65c0.54,-0.3 1.15,-0.45 1.77,-0.45 1.96,0 3.56,1.55 3.56,3.46 0,0.23 -0.02,0.46 -0.07,0.68l-0.19 1.02c-0.04,0.2 -0.06,0.42 -0.06,0.63 0,1.74 1.32,3.21 3.1,3.44l1.05 0.13c1.79,0.21 3.13,1.69 3.13,3.45 0,0.97 -0.42,1.89 -1.15,2.55l-0.77 0.71c-0.71,0.65 -1.11,1.57 -1.11,2.52 0,0.95 0.4,1.86 1.11,2.52l0.77 0.7c0.7,0.66 1.1,1.56 1.1,2.51 0,1.75 -1.34,3.22 -3.12,3.45l0 0z"/>
   <path class="fil1 str0" d="M45.6 25.23c-0.4,-0.37 -0.63,-0.89 -0.63,-1.43 0,-0.54 0.23,-1.06 0.63,-1.43l0.77 -0.71c1.02,-0.94 1.6,-2.24 1.6,-3.61 0,-2.49 -1.9,-4.6 -4.44,-4.93l-1.05 -0.13c-1.01,-0.13 -1.76,-0.96 -1.76,-1.94 0,-0.13 0.01,-0.25 0.04,-0.37l0.19 -1.02c0.06,-0.3 0.08,-0.59 0.08,-0.89 0,-2.74 -2.28,-4.97 -5.1,-4.97 -0.85,0 -1.69,0.21 -2.44,0.6l-1.23 0.66c-0.29,0.15 -0.61,0.23 -0.95,0.23 -0.72,0 -1.38,-0.38 -1.74,-0.98l-1.19 -1.88c-0.91,-1.51 -2.58,-2.43 -4.38,-2.43 -1.8,0 -3.47,0.92 -4.39,2.43l-1.15 1.88c-0.36,0.61 -1.02,0.99 -1.74,0.99 -0.33,0 -0.66,-0.08 -0.95,-0.24l-1.23 -0.65c-0.75,-0.39 -1.58,-0.6 -2.43,-0.6 -2.82,0 -5.11,2.22 -5.11,4.97 0,0.29 0.03,0.59 0.08,0.88l0.19 1.02c0.03,0.12 0.04,0.25 0.04,0.37 0,0.99 -0.75,1.82 -1.76,1.95l-1.05 0.13c-2.55,0.32 -4.46,2.43 -4.46,4.93 0,1.36 0.58,2.66 1.59,3.6l0.77 0.71c0.4,0.37 0.63,0.89 0.63,1.43 0,0.54 -0.23,1.06 -0.63,1.43l-0.77 0.71c-1.04,0.94 -1.63,2.26 -1.63,3.64 0,2.51 1.93,4.64 4.5,4.94l1.05 0.13c1.01,0.13 1.76,0.96 1.76,1.95 0,0.12 -0.01,0.24 -0.04,0.36l-0.19 1.02c-0.05,0.29 -0.08,0.59 -0.08,0.89 0,2.74 2.29,4.97 5.11,4.97 0.85,0 1.68,-0.21 2.43,-0.6l1.11 -0.6c0.3,-0.16 0.64,-0.24 0.98,-0.24 0.73,0 1.4,0.38 1.75,0.99l1.14 2.02c0.89,1.6 2.61,2.59 4.48,2.59 1.86,0 3.58,-0.99 4.48,-2.59l1.13 -2.02c0.36,-0.61 1.03,-0.99 1.75,-0.99 0.35,0 0.68,0.08 0.98,0.24l1.11 0.6c0.75,0.39 1.59,0.6 2.44,0.6 2.82,0 5.1,-2.23 5.1,-4.97 0,-0.3 -0.02,-0.6 -0.08,-0.89l-0.19 -1.02c-0.02,-0.12 -0.04,-0.24 -0.04,-0.37 0,-0.98 0.76,-1.81 1.76,-1.94l1.05 -0.13c2.57,-0.3 4.51,-2.42 4.51,-4.94 0,-1.38 -0.59,-2.7 -1.63,-3.64l-0.77 -0.71zm-0.86 4.93c-0.46,1.36 -1.67,1.35 -2.7,1.51 -2.54,0.32 -4.45,2.43 -4.45,4.93 0,0.3 0.03,0.6 0.09,0.9 0.22,1.11 0.56,2.16 -0.61,3 -1.16,0.85 -2.18,0.12 -3.26,-0.45 -0.75,-0.41 -1.59,-0.62 -2.45,-0.62 -1.87,0 -3.6,1 -4.49,2.6l-1.13 2.02c-0.36,0.63 -1.03,1.02 -1.77,1.02 -0.74,0 -1.42,-0.39 -1.77,-1.02l-1.14 -2.02c-0.89,-1.59 -2.61,-2.58 -4.47,-2.58 -0.01,0 -0.01,0 -0.01,0 -1.5,0 -2.32,0.54 -3.55,1.19 -0.29,0.15 -0.61,0.22 -0.94,0.22 -1.12,0 -2.02,-0.88 -2.02,-1.96 0,-0.14 0.01,-0.27 0.04,-0.41 0.26,-1.34 0.7,-3 -0.69,-4.85 -1.39,-1.86 -3.01,-1.95 -4.51,-2.12 -1.01,-0.14 -1.76,-0.98 -1.76,-1.97 0,-0.54 0.23,-1.05 0.63,-1.43 1.19,-1.11 2.36,-2.1 2.36,-4.32 0,-2.22 -1.26,-3.3 -2.36,-4.29 -0.4,-0.37 -0.63,-0.89 -0.63,-1.43 0,-0.99 0.75,-1.82 1.76,-1.96 1.63,-0.21 3.18,-0.36 4.51,-2.13 1.33,-1.78 0.96,-3.45 0.69,-4.86 -0.02,-0.12 -0.03,-0.25 -0.03,-0.37 0,-1.08 0.9,-1.96 2.01,-1.96 0.34,0 0.67,0.09 0.97,0.24l1.23 0.65c0.75,0.4 1.59,0.61 2.44,0.61 1.8,0 3.47,-0.93 4.38,-2.45 1.04,-1.7 1.44,-2.85 2.89,-2.85 0.01,0 0.02,0 0.03,0 0.71,0 1.36,0.37 1.71,0.96l1.14 1.89c0.91,1.5 2.58,2.43 4.38,2.43 0.85,0 1.7,-0.21 2.45,-0.61l1.22 -0.65c0.3,-0.16 0.64,-0.25 0.98,-0.25 1.11,0 2.02,0.88 2.02,1.96 0,0.13 -0.02,0.25 -0.04,0.38 -0.24,1.28 -0.7,3 0.7,4.85 1.4,1.86 3.01,1.95 4.51,2.14 1.01,0.13 1.77,0.96 1.77,1.95 0,0.56 -0.24,1.09 -0.66,1.46 -1.2,1.11 -2.32,2.11 -2.32,4.31 -0.04,3.94 3.71,3.88 2.85,6.34z"/>
   <path class="fil2" d="M16.34 23.11c-0.27,-0.49 -0.79,-0.8 -1.37,-0.8 -0.85,0 -1.54,0.67 -1.54,1.5 0,0.28 0.08,0.56 0.24,0.8l2.08 3.51 -5.41 -2.61c-0.21,-0.1 -0.44,-0.15 -0.68,-0.15 -0.85,0 -1.54,0.67 -1.54,1.5 0,0.26 0.07,0.52 0.2,0.75l4.63 7.8c0.27,0.49 0.79,0.8 1.37,0.8 0.85,0 1.54,-0.67 1.54,-1.5 0,-0.28 -0.08,-0.56 -0.24,-0.8l-2.07 -3.51 5.4 2.6c0.21,0.1 0.44,0.16 0.68,0.16 0.85,0 1.54,-0.68 1.54,-1.51 0,-0.26 -0.07,-0.51 -0.2,-0.74l-4.63 -7.8z"/>
   <path class="fil2" d="M28.21 25.11l-4 2.25 -0.77 -1.3 2.67 -1.5c0.44,-0.28 0.71,-0.75 0.71,-1.27 0,-0.83 -0.69,-1.5 -1.54,-1.5 -0.25,0 -0.5,0.06 -0.72,0.17l-2.67 1.5 -0.77 -1.3 4.01 -2.25c0.48,-0.26 0.77,-0.76 0.77,-1.3 0,-0.83 -0.69,-1.5 -1.54,-1.5 -0.27,0 -0.54,0.07 -0.78,0.2l-5.34 3c-0.48,0.27 -0.77,0.77 -0.77,1.3 0,0.27 0.07,0.52 0.2,0.75 4.93,8.25 4.73,8.25 5.57,8.5 0.85,0.25 0.78,0.08 6.52,-3.15 0.48,-0.27 0.77,-0.76 0.77,-1.3 0,-0.83 -0.69,-1.5 -1.55,-1.5 -0.27,0 -0.53,0.07 -0.77,0.2l0 0z"/>
   <path class="fil2" d="M35.05 12.6c-0.27,-0.49 -0.79,-0.8 -1.37,-0.8 -0.85,0 -1.54,0.67 -1.54,1.5 0,0.29 0.08,0.56 0.24,0.81l3.08 5.2 -0.77 -0.09c-0.06,-0.01 -0.11,-0.01 -0.17,-0.01 -0.62,0 -1.18,0.35 -1.42,0.91l-0.31 0.69 -3.09 -5.2c-0.26,-0.5 -0.79,-0.81 -1.37,-0.81 -0.85,0 -1.54,0.67 -1.54,1.5 0,0.29 0.08,0.57 0.24,0.81l4.63 7.8c0.28,0.47 0.79,0.76 1.34,0.76 0.62,0 1.17,-0.36 1.42,-0.91l1.05 -2.41 2.69 0.31c0.07,0.01 0.14,0.01 0.21,0.01 0.86,0 1.55,-0.67 1.55,-1.5 0,-0.26 -0.08,-0.53 -0.22,-0.76l-4.65 -7.81z"/>
  </g>
 </g>
</svg>
